<svg role="img" viewBox="0 0 24 24" fill="currentColor" xmlns="http://www.w3.org/2000/svg">
  <title>GitHub</title>
  <path d="M12 0C5.37 0 0 5.37 0 12c0 5.3 3.438 9.8 8.205 11.385.6.113.82-.258.82-.577v-2.234c-3.338.726-4.033-1.415-4.033-1.415-.546-1.385-1.333-1.754-1.333-1.754-1.089-.745.083-.729.083-.729 1.205.085 1.84 1.237 1.84 1.237 1.07 1.834 2.809 1.304 3.495.997.107-.775.42-1.305.762-1.605-2.665-.305-5.466-1.332-5.466-5.93 0-1.31.468-2.381 1.236-3.221-.123-.303-.535-1.527.117-3.176 0 0 1.008-.322 3.301 1.23.957-.266 1.983-.399 3.003-.404 1.02.005 2.047.138 3.006.404 2.291-1.552 3.297-1.23 3.297-1.23.653 1.649.241 2.873.119 3.176.77.84 1.235 1.911 1.235 3.221 0 4.61-2.803 5.624-5.475 5.921.431.372.815 1.102.815 2.222v3.293c0 .322.218.694.825.576C20.565 21.797 24 17.298 24 12c0-6.63-5.37-12-12-12z"/>
</svg>