<svg role="img" viewBox="0 0 24 24" fill="currentColor" xmlns="http://www.w3.org/2000/svg">
  <title>Twitter</title>
  <path d="M24 4.557a9.83 9.83 0 01-2.828.775 4.932 4.932 0 002.165-2.724c-.951.564-2.005.974-3.127 1.195a4.92 4.92 0 00-8.384 4.482A13.978 13.978 0 013.17 3.149a4.822 4.822 0 00-.666 2.475c0 1.708.87 3.216 2.188 4.099a4.904 4.904 0 01-2.229-.616c-.054 2.281 1.581 4.415 3.949 4.89a4.996 4.996 0 01-2.224.084c.627 1.956 2.444 3.377 4.6 3.416A9.867 9.867 0 010 21.543 13.94 13.94 0 007.548 24c9.142 0 14.307-7.721 13.995-14.646A9.936 9.936 0 0024 4.557z"/>
</svg>