<svg role="img" viewBox="0 0 24 24" fill="currentColor" xmlns="http://www.w3.org/2000/svg">
  <title>WhatsApp</title>
  <path d="M17.472 14.382c-.297-.149-1.758-.867-2.03-.967-.273-.099-.471-.148-.67.15-.198.297-.767.966-.94 1.164-.173.198-.347.223-.644.074-.297-.15-1.255-.462-2.39-1.475-.883-.788-1.48-1.761-1.653-2.059-.173-.297-.018-.458.13-.606.134-.133.298-.347.447-.52.149-.173.198-.297.298-.495.099-.198.05-.371-.025-.52-.075-.149-.669-1.611-.916-2.206-.242-.579-.487-.5-.669-.51-.173-.007-.371-.009-.57-.009s-.52.074-.792.372c-.273.297-1.04 1.016-1.04 2.479 0 1.462 1.065 2.875 1.213 3.074.149.198 2.099 3.2 5.077 4.361.709.243 1.262.388 1.694.496.712.181 1.36.156 1.872.095.571-.068 1.758-.719 2.006-1.413.248-.694.248-1.288.173-1.413-.075-.124-.272-.198-.57-.347zm-5.421 7.617h-.001a9.87 9.87 0 01-5.031-1.378l-.361-.214-3.741.982.999-3.651-.235-.374a9.842 9.842 0 01-1.51-5.27c.001-5.455 4.437-9.891 9.893-9.891a9.86 9.86 0 017.003 2.897 9.825 9.825 0 012.888 7.004c-.003 5.455-4.439 9.891-9.893 9.891zm8.413-18.307A11.815 11.815 0 0012.05 0C5.495 0 .16 5.335.157 11.892c0 2.096.547 4.142 1.588 5.945L0 24l6.305-1.654a11.876 11.876 0 005.737 1.466h.005c6.554 0 11.89-5.335 11.893-11.893a11.821 11.821 0 00-3.49-8.465z"/>
</svg>